# xmcd
#
# Track frame offsets:
#	150
#	12308
#	24113
#	39830
#	51274
#	66061
#	77053
#	92085
#	105183
#	123431
#	140096
#
# Disc length: 2023 seconds
#
# Revision: 1
# Processed by: cddbd v1.5.2PL0 Copyright (c) Steve Scherf et al.
# Submitted via: audiograbber 1.83.01
#
DISCID=8007e50b
DTITLE=Norville Dollar - Traditional Sound Of
DYEAR=2008
DGENRE=Country
TTITLE0=It Took Both Of Us
TTITLE1=Bar Code
TTITLE2=Not Far From The Tree
TTITLE3=Noboddy´s Bussiness
TTITLE4=Haggard And Jones
TTITLE5=Rosie´s On A Roll
TTITLE6=I Hope You Choke
TTITLE7=She´s Got It And Gone
TTITLE8=My Dreams Just Came True
TTITLE9=Don´t Follow Me
TTITLE10=Uncle Sam, Mr. Jukebox
EXTD=
EXTT0=
EXTT1=
EXTT2=
EXTT3=
EXTT4=
EXTT5=
EXTT6=
EXTT7=
EXTT8=
EXTT9=
EXTT10=
PLAYORDER=
